<?xml version="1.0" encoding="UTF-8"?>
<svg width="752pt" height="752pt" version="1.1" viewBox="0 0 752 752" xmlns="http://www.w3.org/2000/svg">
 <g>
  <path d="m532.5 376.96-47.359 94.715h0.003907c-7.5156 15.16-19.121 27.91-33.504 36.816-14.387 8.9062-30.977 13.609-47.895 13.574h-119.88v-176.93l109.14-115.14c6.4023 0.53125 12.191 4.0195 15.648 9.4375 3.4531 5.4141 4.1797 12.137 1.9648 18.164l-32.707 84.727c-0.44141 1.1523-0.30469 2.4453 0.37109 3.4805 0.70312 0.96875 1.832 1.5469 3.0312 1.5508h133.2c7.0742 0.03125 13.637 3.707 17.352 9.7305 3.7188 6.0195 4.0664 13.531 0.92578 19.871z"/>
  <path d="m217.28 347.36h59.199v174.71h-59.199z"/>
 </g>
</svg>
