<?xml version="1.0" encoding="UTF-8"?>
<svg width="752pt" height="752pt" version="1.1" viewBox="0 0 752 752" xmlns="http://www.w3.org/2000/svg">
 <path d="m262.34 418.62c44.516-1.8945 84.77-18.469 106.08-43.57 1.8945-1.8945 4.2617-3.3164 7.1055-3.3164 2.8398 0 5.2109 1.4219 7.1055 3.3164 21.785 25.574 61.566 41.676 106.55 43.57-6.6289-15.629-16.102-29.836-28.887-41.676-13.262-12.312-15.156-32.676-4.7344-48.777 10.891-17.051 16.102-36.938 15.156-57.305-2.8516-46.887-41.684-86.191-88.57-89.035-26.52-1.4219-51.621 7.5781-71.039 25.574-19.418 17.996-29.836 42.621-29.836 69.145 0 18.469 5.2109 36.465 15.156 51.621 10.418 15.629 8.0508 35.992-5.2109 48.305-12.309 11.84-22.254 26.047-28.883 42.148zm113.66-208.38c36.465 0 66.301 29.836 66.301 66.301 0 36.465-29.836 66.301-66.301 66.301s-66.301-29.836-66.301-66.301c0-36.469 29.836-66.301 66.301-66.301zm-108.92 312.56h218.32c9-17.523 13.734-36.941 13.734-56.832 0-9.9453-0.94531-19.418-3.3164-28.414-21.312-0.47266-41.676-3.7891-60.145-9.4727-23.68-7.5781-44.516-18.941-59.672-33.625-15.156 14.68-35.992 26.047-59.672 33.625-18.469 5.6836-38.832 8.9961-60.145 9.4727-2.8398 11.84-3.7891 23.68-3.3164 35.992 1.4258 17.051 6.1602 34.098 14.211 49.254zm70.09-73.879c3.3164-10.418 12.312-17.996 22.258-18.469h1.4219c5.2109 0 10.418 1.4219 14.68 4.2617 4.7344-2.8398 10.418-4.7344 16.102-4.2617 9.9453 0.47266 18.941 8.0508 22.258 18.469 3.7891 12.312-0.47266 25.102-12.312 34.57l-20.836 16.102c-1.8945 1.4219-3.7891 1.8945-5.6836 1.8945-1.8945 0-4.2617-0.47266-5.6836-1.8945l-20.363-16.102c-10.895-9.9453-15.629-22.73-11.84-34.57zm38.832-125.03c23.207 0 42.621-16.574 46.41-38.832-19.891-3.3164-36.465-15.156-46.41-31.258-9.9453 16.574-26.992 28.414-46.41 31.258 3.7891 22.258 23.207 38.832 46.41 38.832zm12.316-35.043c0.47266-0.47266 0.94531-0.94531 1.4219-0.94531 0.47266 0 0.94531-0.47266 1.4219-0.94531 0.47266 0 0.94531-0.47266 1.8945-0.47266 3.3164-0.47266 6.1562 0.47266 8.5234 2.3672 1.8906 1.8906 2.8398 4.2578 2.8398 6.625 0 2.3672-0.94531 4.7344-2.8398 6.6289-1.8984 1.8945-4.2656 2.8438-6.6328 2.8438h-1.8945c-0.47266 0-1.4219-0.47266-1.8945-0.47266s-0.94531-0.47266-1.4219-0.94531c-0.47266-0.47266-0.94531-0.47266-1.4219-0.94531-0.47266-0.47266-0.94531-0.94531-0.94531-1.4219-0.47266-0.47266-0.47266-0.94531-0.94531-1.4219-0.47266-0.47266-0.47266-0.94531-0.47266-1.8945v-1.8945c-0.47656-2.8438 0.47266-5.2109 2.3672-7.1055zm-37.887 0c0.47266-0.47266 0.94531-0.94531 1.4219-0.94531 0.47266 0 0.94531-0.47266 1.4219-0.94531 0.47266 0 0.94531-0.47266 1.8945-0.47266h3.7891c0.47266 0 0.94531 0.47266 1.8945 0.47266 0.47266 0.47266 0.94531 0.47266 1.4219 0.94531 0.47266 0.47266 0.94531 0.94531 1.4219 0.94531 1.8867 1.8945 2.8359 4.2617 2.8359 6.6289 0 2.3672-0.94531 4.7344-2.8398 6.6289-0.47266 0.47266-0.94531 0.94531-1.4219 0.94531-0.47266 0-0.94531 0.47266-1.4219 0.94531-0.47266 0-0.94531 0.47266-1.8945 0.47266h-1.8945-1.8945c-0.47266 0-0.94531-0.47266-1.8945-0.47266-0.47266 0-0.94531-0.47266-1.4219-0.94531-0.47266-0.47266-0.94531-0.47266-1.4219-0.94531-1.8906-1.8945-2.8398-4.2617-2.8398-6.6289 0-2.3672 0.94922-4.7344 2.8438-6.6289zm-20.367-23.207c4.2617-17.523 17.996-31.258 35.52-35.52-4.2617 17.996-17.996 31.73-35.52 35.52zm56.832-35.043c17.523 4.2617 31.258 17.996 35.52 35.52-17.996-4.2656-31.73-18-35.52-35.52zm-31.73 224c0.94531-3.3164 3.7891-5.2109 5.6836-5.2109h0.47266c2.8398 0 5.2109 1.4219 7.1055 3.7891 1.8945 2.3672 4.7344 3.7891 7.5781 3.7891 2.8398 0 5.6836-1.4219 7.5781-3.7891 1.4219-2.3672 4.2617-3.7891 7.1055-3.7891h0.47266c1.8945 0 4.7344 2.3672 5.6836 5.2109 1.4219 4.7344-0.94531 9.4727-6.1562 13.734l-14.688 11.836-14.68-11.367c-5.2109-4.7344-7.5781-9.4688-6.1562-14.203zm148.7 96.609v18.941h-255.73v-18.941c0-5.2109 4.2617-9.4727 9.4727-9.4727h236.79c5.2109 0 9.4727 4.2617 9.4727 9.4727z"/>
</svg>
